<svg xmlns="http://www.w3.org/2000/svg" xmlns:xlink="http://www.w3.org/1999/xlink" width="20" height="20" viewBox="0 0 20 20" fill="none"><g opacity="1" transform="translate(0 0)  rotate(0 10 10)"><rect fill="#2D332E" opacity="1" transform="translate(0 0)  rotate(0 10 10)" x="0" y="0" width="20" height="20" rx="5" /><path fill-rule="evenodd" style="fill:#18F1F1" transform="translate(6 6)  rotate(0 4 4)" opacity="1" d="M6.4,0C6.96,0 7.24,0 7.45,0.11a1,1 0 0,1 0.44,0.44C8,0.76 8,1.04 8,1.6 L8,6.4C8,6.96 8,7.24 7.89,7.45a1,1 0 0,1 -0.44,0.44C7.24,8 6.96,8 6.4,8 L1.6,8C1.04,8 0.76,8 0.55,7.89a1,1 0 0,1 -0.44,-0.44C0,7.24 0,6.96 0 6.4 L0,1.6C0,1.04 0,0.76 0.11,0.55a1,1 0 0,1 0.44,-0.44C0.76,0 1.04,0 1.6,0Z " /></g></svg>